<?xml version="1.0" encoding="utf-8"?>
<!-- Generator: Adobe Illustrator 23.0.1, SVG Export Plug-In . SVG Version: 6.00 Build 0)  -->
<svg version="1.1" id="Capa_1" xmlns="http://www.w3.org/2000/svg" xmlns:xlink="http://www.w3.org/1999/xlink" x="0px" y="0px"
	 viewBox="0 0 512 512" style="enable-background:new 0 0 512 512;" xml:space="preserve">
<style type="text/css">
	.st0{fill:#2B5B83;}
	.st1{fill:#EFEDEE;}
	.st2{fill:#D4D2D3;}
	.st3{fill:#6A8CA8;}
	.st4{fill:#2B836F;}
	.st5{fill:#6AA89A;}
	.st6{fill:#832B2B;}
	.st7{fill:#A86A6A;}
</style>
<path class="st0" d="M437.29,31.88H334.5v149.41l51.67,29.79l51.13-29.79c41.19,0,74.71-33.51,74.71-74.71
	C512,65.39,478.49,31.88,437.29,31.88z"/>
<path class="st1" d="M82.23,140.18c18.52,0,33.59-15.07,33.59-33.59S100.75,73,82.23,73l18.87-21.44h253.87l36.12,47.66
	l-31.11,61.21H111.14L82.23,140.18z"/>
<path class="st2" d="M115.03,99.36h263.25V82.32L371.22,73H82.23C98.27,73,111.72,84.3,115.03,99.36z"/>
<path class="st3" d="M334.5,31.88H82.23c-11.35,0-20.56,9.2-20.56,20.56S70.88,73,82.23,73H334.5c18.52,0,33.59,15.07,33.59,33.59
	c0,18.52-15.07,33.59-33.59,33.59H82.23c-11.35,0-20.56,9.2-20.56,20.56s9.2,20.56,20.56,20.56l168.99,34.85l83.28-34.85
	c41.19,0,74.71-33.51,74.71-74.71C409.21,65.39,375.7,31.88,334.5,31.88z"/>
<path class="st4" d="M74.71,181.29C33.51,181.29,0,214.81,0,256s33.51,74.71,74.71,74.71l57.64,23.56l45.15-23.56V181.29H74.71z"/>
<path class="st1" d="M429.77,222.41c-18.52,0-33.59,15.07-33.59,33.59s15.07,33.59,33.59,33.59l-18.87,21.44H157.03l-36.12-47.66
	l31.11-61.21h248.85L429.77,222.41z"/>
<path class="st2" d="M128.33,248.76h268.64c3.32-15.05,16.76-26.35,32.79-26.35l-0.06-0.04H141.74L128.33,248.76z"/>
<path class="st5" d="M429.77,289.59H177.5c-18.52,0-33.59-15.07-33.59-33.59c0-18.52,15.07-33.59,33.59-33.59h252.27
	c11.35,0,20.56-9.2,20.56-20.56c0-11.35-9.2-20.56-20.56-20.56H177.5c-41.19,0-74.71,33.51-74.71,74.71
	c0,41.19,33.51,74.71,74.71,74.71l143.66,45.26l108.61-45.26c11.35,0,20.56-9.2,20.56-20.56
	C450.33,298.79,441.12,289.59,429.77,289.59z"/>
<path class="st6" d="M437.29,480.12c41.19,0,74.71-33.51,74.71-74.71c0-41.19-33.51-74.71-74.71-74.71H334.5v149.41L437.29,480.12
	L437.29,480.12z"/>
<path class="st1" d="M82.23,439c18.52,0,33.59-15.07,33.59-33.59s-15.07-33.59-33.59-33.59l18.87-21.44h253.87l36.12,47.66
	l-31.11,61.21H111.14L82.23,439z"/>
<path class="st2" d="M115.04,398.21H391l0.09-0.17l-19.86-26.2H83.27C98.86,372.33,111.8,383.47,115.04,398.21z"/>
<path class="st7" d="M334.5,480.12H82.23c-11.35,0-20.56-9.2-20.56-20.56c0-11.36,9.2-20.56,20.56-20.56H334.5
	c18.52,0,33.59-15.07,33.59-33.59s-15.07-33.59-33.59-33.59H82.23c-11.35,0-20.56-9.2-20.56-20.56s9.2-20.56,20.56-20.56H334.5
	c41.19,0,74.71,33.51,74.71,74.71C409.21,446.61,375.7,480.12,334.5,480.12z"/>
</svg>
