<?xml version="1.0" encoding="utf-8"?>
<!-- Generator: Adobe Illustrator 23.0.1, SVG Export Plug-In . SVG Version: 6.00 Build 0)  -->
<svg version="1.1" id="Слой_1" xmlns="http://www.w3.org/2000/svg" xmlns:xlink="http://www.w3.org/1999/xlink" x="0px" y="0px"
	 viewBox="0 0 512 512" style="enable-background:new 0 0 512 512;" xml:space="preserve">
<style type="text/css">
	.st0{fill:#4E555C;}
	.st1{fill:#F8EED3;}
	.st2{fill:#832B2B;}
	.st3{fill:#43494F;}
	.st4{fill:#ECD8A4;}
</style>
<path class="st0" d="M324.09,0H80.23C70.17,0,62,8.17,62,18.23v86l131.05,22.41l131.05-22.41l30.51-52.12L324.09,0z"/>
<path class="st0" d="M418.22,0h-33.1v0.01l0-0.01l-30.51,52.12l30.52,52.12l32.47,22.41l32.47-22.41V31.85
	C450.06,14.26,435.8,0,418.22,0z"/>
<path class="st0" d="M324.09,328.52l-131.05-21.05L62,328.52v86c0,10.07,8.17,18.23,18.23,18.23H324.1l30.51-52.12L324.09,328.52z"
	/>
<path class="st0" d="M417.59,307.47l-32.47,21.05l-30.52,52.12l30.51,52.12l0-0.01v0.01h33.1c17.58,0,31.85-14.26,31.85-31.85
	v-72.39L417.59,307.47z"/>
<path class="st1" d="M62,104.24h388.06v224.29H62V104.24z"/>
<g>
	<path class="st0" d="M116.55,227.34c-4.27,0-7.73-3.46-7.73-7.73v-13.85c0-4.27,3.46-7.73,7.73-7.73s7.73,3.46,7.73,7.73v13.85
		C124.28,223.88,120.82,227.34,116.55,227.34z"/>
	<path class="st0" d="M269.54,227.34c-4.27,0-7.73-3.46-7.73-7.73v-13.85c0-4.27,3.46-7.73,7.73-7.73c4.27,0,7.73,3.46,7.73,7.73
		v13.85C277.27,223.88,273.81,227.34,269.54,227.34z"/>
	<path class="st0" d="M193.05,234.73c-9.59,0-18.59-4.01-24.7-11c-2.81-3.21-2.48-8.09,0.73-10.9c3.21-2.81,8.09-2.48,10.9,0.73
		c3.17,3.63,7.93,5.71,13.06,5.71s9.89-2.08,13.06-5.71c2.81-3.21,7.69-3.54,10.9-0.73c3.21,2.8,3.54,7.69,0.73,10.9
		C211.64,230.72,202.64,234.73,193.05,234.73z"/>
</g>
<path class="st2" d="M324.09,0h61.02v432.76h-61.02V0z"/>
<path class="st3" d="M293.13,0h30.96v104.24h-30.96V0z"/>
<path class="st3" d="M293.13,328.52h30.96v104.24h-30.96V328.52z"/>
<path class="st4" d="M293.13,104.24h30.96v224.29h-30.96V104.24z"/>
</svg>
