<?xml version="1.0" encoding="utf-8"?>
<!-- Generator: Adobe Illustrator 23.0.1, SVG Export Plug-In . SVG Version: 6.00 Build 0)  -->
<svg version="1.1" id="Слой_1" xmlns="http://www.w3.org/2000/svg" xmlns:xlink="http://www.w3.org/1999/xlink" x="0px" y="0px"
	 viewBox="0 0 512 512" style="enable-background:new 0 0 512 512;" xml:space="preserve">
<style type="text/css">
	.st0{fill:#4E555C;}
	.st1{fill:#D6D8D9;}
	.st2{fill:#BEBFC0;}
	.st3{fill:#F8EED3;}
	.st4{fill:#2B5B83;}
	.st5{fill:#832B2B;}
	.st6{fill:#ECD8A4;}
</style>
<path class="st0" d="M97.45,167.35H52.37v293.04h45.08V344.36l27.04-97L97.45,167.35z"/>
<path class="st0" d="M414.55,167.35h45.08v293.04h-45.08V344.36l-27.04-97L414.55,167.35z"/>
<path class="st1" d="M470.93,30H41.07C18.39,30,0,48.39,0,71.07v73.92c0,22.68,18.39,41.07,41.07,41.07h429.85
	c22.68,0,41.07-18.39,41.07-41.07V71.07C512,48.39,493.61,30,470.93,30z"/>
<path class="st2" d="M30.91,144.99V71.07C30.91,48.39,49.29,30,71.98,30h-30.9C18.39,30,0,48.39,0,71.07v73.91
	c0,22.68,18.39,41.07,41.07,41.07h30.9C49.29,186.06,30.91,167.68,30.91,144.99z"/>
<path class="st3" d="M97.45,108.03v236.33c0,14.46,11.72,26.18,26.19,26.18h264.73c14.46,0,26.19-11.72,26.19-26.18V108.03H97.45z"
	/>
<path class="st0" d="M444.52,115.76H67.48c-4.27,0-7.73-3.46-7.73-7.73c0-4.27,3.46-7.73,7.73-7.73h377.05
	c4.27,0,7.73,3.46,7.73,7.73C452.25,112.3,448.79,115.76,444.52,115.76z"/>
<path class="st4" d="M387.52,69.02c0,7.83-6.34,14.17-14.17,14.17s-14.17-6.34-14.17-14.17c0-7.83,6.34-14.17,14.17-14.17
	S387.52,61.19,387.52,69.02z"/>
<path class="st5" d="M444.52,69.02c0,7.83-6.34,14.17-14.17,14.17s-14.17-6.34-14.17-14.17c0-7.83,6.34-14.17,14.17-14.17
	S444.52,61.19,444.52,69.02z"/>
<g>
	<path class="st0" d="M175.53,251.71c-4.27,0-7.73-3.46-7.73-7.73v-14.56c0-4.27,3.46-7.73,7.73-7.73c4.27,0,7.73,3.46,7.73,7.73
		v14.56C183.26,248.25,179.8,251.71,175.53,251.71z"/>
	<path class="st0" d="M336.47,251.71c-4.27,0-7.73-3.46-7.73-7.73v-14.56c0-4.27,3.46-7.73,7.73-7.73c4.27,0,7.73,3.46,7.73,7.73
		v14.56C344.2,248.25,340.73,251.71,336.47,251.71z"/>
	<path class="st0" d="M256,259.48c-9.97,0-19.33-4.16-25.68-11.43c-2.81-3.21-2.48-8.09,0.73-10.9s8.09-2.48,10.9,0.73
		c3.41,3.91,8.53,6.14,14.04,6.14s10.63-2.24,14.04-6.14c2.81-3.21,7.69-3.54,10.9-0.73c3.21,2.81,3.54,7.69,0.73,10.9
		C275.33,255.32,265.97,259.48,256,259.48z"/>
</g>
<path class="st1" d="M105.77,438.07H44.05c-13.99,0-25.32,11.34-25.32,25.32v7.12c0,6.74,5.46,12.2,12.2,12.2h87.98
	c6.73,0,12.2-5.46,12.2-12.2v-7.12C131.09,449.41,119.75,438.07,105.77,438.07z"/>
<path class="st2" d="M49.63,470.52v-7.12c0-13.98,11.34-25.32,25.32-25.32h-30.9c-13.99,0-25.32,11.34-25.32,25.32v7.12
	c0,6.74,5.46,12.2,12.2,12.2h30.91C55.09,482.71,49.63,477.25,49.63,470.52z"/>
<path class="st1" d="M406.23,438.07h61.72c13.99,0,25.32,11.34,25.32,25.32v7.12c0,6.74-5.46,12.2-12.2,12.2h-87.98
	c-6.73,0-12.2-5.46-12.2-12.2v-7.12C380.91,449.41,392.25,438.07,406.23,438.07z"/>
<path class="st2" d="M411.82,470.52v-7.12c0-13.98,11.34-25.32,25.32-25.32h-30.91c-13.98,0-25.32,11.34-25.32,25.32v7.12
	c0,6.74,5.46,12.2,12.2,12.2h30.91C417.27,482.71,411.82,477.25,411.82,470.52z"/>
<path class="st6" d="M97.45,115.76h317.11v31.08H97.45V115.76z"/>
</svg>
