<?xml version="1.0" encoding="utf-8"?>
<!-- Generator: Adobe Illustrator 23.0.1, SVG Export Plug-In . SVG Version: 6.00 Build 0)  -->
<svg version="1.1" id="Capa_1" xmlns="http://www.w3.org/2000/svg" xmlns:xlink="http://www.w3.org/1999/xlink" x="0px" y="0px"
	 viewBox="0 0 512 512" style="enable-background:new 0 0 512 512;" xml:space="preserve">
<style type="text/css">
	.st0{fill:#F1F1F1;}
	.st1{opacity:0.1;enable-background:new    ;}
	.st2{fill:#A86A6A;}
	.st3{opacity:0.1;}
	.st4{fill:#832B2B;}
	.st5{fill:#4A5058;}
	.st6{fill:#2B5B83;}
	.st7{fill:#E6B292;}
	.st8{opacity:0.1;fill:#513130;enable-background:new    ;}
	.st9{fill:#9B7E73;}
	.st10{fill:#2B836F;}
	.st11{opacity:0.3;fill:#FFFFFF;enable-background:new    ;}
	.st12{fill:#FFD4B8;}
</style>
<rect x="69.38" y="70.35" class="st0" width="98.76" height="125.48"/>
<polygon class="st1" points="69.38,70.35 69.38,195.83 93.05,195.83 93.05,94.49 168.14,94.49 168.14,70.35 "/>
<path class="st2" d="M174.29,21.28H63.23c-8.78,0-15.9,7.12-15.9,15.9v17.26c0,8.78,7.12,15.9,15.9,15.9h111.06
	c8.78,0,15.9-7.12,15.9-15.9V37.18C190.2,28.4,183.08,21.28,174.29,21.28z"/>
<path class="st0" d="M452.57,219.25L256,131.61L59.43,219.25v245.39c0,14.4,11.67,26.08,26.07,26.08h340.98
	c14.4,0,26.08-11.67,26.08-26.08L452.57,219.25L452.57,219.25z"/>
<g class="st3">
	<path d="M408.93,394.12h-43.64c-4.14,0-7.5-3.36-7.5-7.5s3.36-7.5,7.5-7.5h43.64c4.14,0,7.5,3.36,7.5,7.5
		S413.07,394.12,408.93,394.12z"/>
	<path d="M408.93,367.27h-43.64c-4.14,0-7.5-3.36-7.5-7.5s3.36-7.5,7.5-7.5h43.64c4.14,0,7.5,3.36,7.5,7.5
		C416.43,363.91,413.07,367.27,408.93,367.27z"/>
	<path d="M387.11,394.12c-4.14,0-7.5-3.36-7.5-7.5v-26.85c0-4.14,3.36-7.5,7.5-7.5s7.5,3.36,7.5,7.5v26.85
		C394.61,390.76,391.25,394.12,387.11,394.12z"/>
</g>
<g class="st3">
	<path d="M123.6,339.68H79.96c-4.14,0-7.5-3.36-7.5-7.5s3.36-7.5,7.5-7.5h43.64c4.14,0,7.5,3.36,7.5,7.5
		C131.1,336.33,127.75,339.68,123.6,339.68z"/>
	<path d="M141.33,312.83H79.96c-4.14,0-7.5-3.36-7.5-7.5s3.36-7.5,7.5-7.5h61.37c4.14,0,7.5,3.36,7.5,7.5
		S145.48,312.83,141.33,312.83z"/>
	<path d="M101.78,339.68c-4.14,0-7.5-3.36-7.5-7.5v-26.85c0-4.14,3.36-7.5,7.5-7.5s7.5,3.36,7.5,7.5v26.85
		C109.28,336.33,105.93,339.68,101.78,339.68z"/>
	<path d="M123.6,312.83c-4.14,0-7.5-3.36-7.5-7.5v-26.85c0-4.14,3.36-7.5,7.5-7.5s7.5,3.36,7.5,7.5v26.85
		C131.1,309.47,127.75,312.83,123.6,312.83z"/>
</g>
<path class="st1" d="M256,131.61L59.43,219.25v245.39c0,14.4,11.67,26.08,26.07,26.08h28.24V251.63l118.68-52.3
	c15.02-6.62,32.13-6.62,47.14,0l172.99,76.24v-56.31L256,131.61z"/>
<path class="st4" d="M473.1,259.45l-193.53-85.28c-15.02-6.62-32.13-6.62-47.14,0L38.9,259.45c-9.59,4.23-20.79-0.12-25.01-9.71
	L1.62,221.9c-4.23-9.59,0.12-20.79,9.71-25.01l221.1-97.44c15.02-6.62,32.13-6.62,47.14,0l221.1,97.43
	c9.59,4.23,13.94,15.42,9.71,25.01l-12.27,27.84C493.89,259.33,482.69,263.68,473.1,259.45z"/>
<path class="st5" d="M165.64,469.29h31.87c35.31,0,63.94-28.63,63.94-63.94v-52.42h-95.81L165.64,469.29L165.64,469.29z"/>
<path class="st6" d="M230.37,490.72c0-35.82-29.04-64.86-64.87-64.86l0,0c-35.82,0-64.86,29.04-64.86,64.86H230.37z"/>
<path class="st1" d="M165.51,425.86L165.51,425.86c-18.59,0-35.35,7.82-47.18,20.35c13.93,7.88,30.03,12.38,47.18,12.38
	s33.24-4.5,47.18-12.38C200.86,433.68,184.1,425.86,165.51,425.86z"/>
<circle class="st7" cx="69.52" cy="353.05" r="16.93"/>
<circle class="st8" cx="69.52" cy="353.05" r="16.93"/>
<g>
	<circle class="st7" cx="261.5" cy="353.05" r="16.93"/>
	<circle class="st7" cx="165.46" cy="352.93" r="95.99"/>
</g>
<path class="st5" d="M165.51,256.93c-50.96,0-92.63,39.7-95.79,89.86c30.93,0,85.63-22.37,95.87-43.7
	c14.64,18.96,48.6,45.79,95.62,42.28C257.36,295.89,215.98,256.93,165.51,256.93z"/>
<path class="st8" d="M179.73,436.8c-53.01,0-95.99-42.98-95.99-95.99c0-25.91,10.27-49.42,26.96-66.69
	c-24.89,17.34-41.18,46.17-41.18,78.81c0,53.02,42.98,95.99,95.99,95.99c27.1,0,51.58-11.24,69.03-29.3
	C219,430.45,200.11,436.8,179.73,436.8z"/>
<g>
	<path class="st5" d="M116.43,367.11c-4.14,0-7.5-3.36-7.5-7.5v-9.64c0-4.14,3.36-7.5,7.5-7.5s7.5,3.36,7.5,7.5v9.64
		C123.93,363.76,120.57,367.11,116.43,367.11z"/>
	<path class="st5" d="M214.59,367.11c-4.14,0-7.5-3.36-7.5-7.5v-9.64c0-4.14,3.36-7.5,7.5-7.5s7.5,3.36,7.5,7.5v9.64
		C222.09,363.76,218.73,367.11,214.59,367.11z"/>
	<path class="st5" d="M165.51,393.71c-5.93,0-11.66-2.48-15.72-6.82c-2.83-3.02-2.68-7.77,0.35-10.6s7.77-2.68,10.6,0.35
		c1.25,1.34,2.95,2.07,4.77,2.07s3.52-0.74,4.77-2.07c2.83-3.02,7.58-3.18,10.6-0.35c3.02,2.83,3.18,7.58,0.35,10.6
		C177.17,391.22,171.44,393.71,165.51,393.71z"/>
</g>
<circle class="st9" cx="302.36" cy="265.37" r="39.96"/>
<circle class="st8" cx="302.36" cy="265.37" r="39.96"/>
<path class="st10" d="M411.36,490.72c0-35.82-29.04-64.86-64.86-64.86l0,0c-35.82,0-64.86,29.04-64.86,64.86H411.36z"/>
<path class="st11" d="M346.49,425.86L346.49,425.86c-10.75,0-20.88,2.63-29.81,7.26l11.01,57.6h37.6l11.01-57.6
	C367.38,428.49,357.24,425.86,346.49,425.86z"/>
<path class="st1" d="M346.49,425.86L346.49,425.86c-18.59,0-35.35,7.82-47.18,20.35c13.93,7.88,30.03,12.38,47.18,12.38
	s33.24-4.5,47.18-12.38C381.84,433.68,365.08,425.86,346.49,425.86z"/>
<g>
	<circle class="st12" cx="250.5" cy="353.05" r="16.93"/>
	<circle class="st12" cx="442.49" cy="353.05" r="16.93"/>
	<circle class="st12" cx="346.44" cy="352.93" r="95.99"/>
</g>
<path class="st9" d="M346.45,256.93c-45.92,0-84.3,32.25-93.76,75.33c30.36,11.41,94.43,9.65,138.9-16.16
	c4.76,9.14,29.54,27.79,50.7,31.47C439.51,297.05,397.66,256.93,346.45,256.93z"/>
<path class="st8" d="M360.72,436.8c-53.01,0-95.99-42.98-95.99-95.99c0-25.91,10.27-49.42,26.96-66.69
	c-24.89,17.34-41.18,46.17-41.18,78.81c0,53.02,42.98,95.99,95.99,95.99c27.1,0,51.58-11.24,69.03-29.3
	C399.99,430.45,381.1,436.8,360.72,436.8z"/>
<g>
	<path class="st5" d="M297.41,367.11c-4.14,0-7.5-3.36-7.5-7.5v-9.64c0-4.14,3.36-7.5,7.5-7.5s7.5,3.36,7.5,7.5v9.64
		C304.91,363.76,301.55,367.11,297.41,367.11z"/>
	<path class="st5" d="M395.57,367.11c-4.14,0-7.5-3.36-7.5-7.5v-9.64c0-4.14,3.36-7.5,7.5-7.5s7.5,3.36,7.5,7.5v9.64
		C403.07,363.76,399.71,367.11,395.57,367.11z"/>
	<path class="st5" d="M346.49,393.71c-5.93,0-11.66-2.48-15.72-6.82c-2.83-3.02-2.68-7.77,0.35-10.6c3.02-2.83,7.77-2.68,10.6,0.35
		c1.25,1.34,2.95,2.07,4.77,2.07c1.83,0,3.52-0.74,4.77-2.07c2.83-3.02,7.58-3.18,10.6-0.35c3.02,2.83,3.18,7.58,0.35,10.6
		C358.15,391.22,352.42,393.71,346.49,393.71z"/>
</g>
</svg>
